<svg data-v-423bf9ae="" xmlns="http://www.w3.org/2000/svg" viewBox="0 0 628 90" class="iconLeftSlogan"><!----><!----><!----><g data-v-423bf9ae="" id="4bbbc863-8fe7-4ed4-bc83-3daaf1d1055a" fill="black" transform="matrix(6.361596417460351,0,0,6.361596417460351,107.70981907614902,-21.436386494513656)"><path d="M1.47 3.66L0.36 4.59L0.43 4.82L0.43 4.82Q1.13 4.09 0.94 7.44L0.94 7.44L0.36 8.11L0.96 8.55L0.93 11.57L0.93 11.57Q0.91 12.69 1.89 12.74L1.89 12.74L2.78 12.04L2.65 11.81L2.65 11.81Q1.90 12.51 2.04 9.01L2.04 9.01L2.04 9.01Q3.28 9.39 4.06 8.87L4.06 8.87L4.06 8.87Q4.84 8.34 5.29 7.91L5.29 7.91L5.29 7.91Q5.75 7.47 5.93 6.67L5.93 6.67L5.93 6.67Q6.12 5.86 5.51 4.89L5.51 4.89L5.51 4.89Q4.89 3.92 3.85 3.50L3.85 3.50L2.04 4.87L2.04 4.87Q2.03 4.12 1.47 3.66L1.47 3.66ZM3.30 4.48L3.30 4.48Q4.16 4.75 4.63 5.62L4.63 5.62L4.63 5.62Q5.10 6.49 4.99 7.33L4.99 7.33L4.99 7.33Q4.87 8.18 3.75 8.33L3.75 8.33L3.75 8.33Q2.62 8.47 2.02 7.66L2.02 7.66L2.05 5.44L3.30 4.48ZM8.26 6.54L8.26 6.54L8.26 6.54Q7.24 6.56 6.40 7.23L6.40 7.23L6.40 7.23Q5.55 7.90 5.97 8.74L5.97 8.74L7.09 8.07L7.09 8.07Q6.87 6.90 8.30 7.03L8.30 7.03L8.30 7.03Q9.72 7.15 9.54 8.89L9.54 8.89L9.54 8.89Q8.43 8.39 7.55 8.61L7.55 8.61L7.55 8.61Q6.67 8.82 5.93 9.71L5.93 9.71L5.93 9.71Q5.35 10.58 5.56 11.18L5.56 11.18L5.56 11.18Q5.78 11.79 6.26 12.23L6.26 12.23L6.26 12.23Q6.74 12.67 7.34 12.71L7.34 12.71L7.34 12.71Q7.94 12.76 8.35 12.48L8.35 12.48L8.35 12.48Q8.76 12.20 9.55 11.49L9.55 11.49L9.55 11.49Q9.62 12.36 10.11 12.76L10.11 12.76L11.22 11.80L11.14 11.64L11.14 11.64Q10.57 12.10 10.51 10.58L10.51 10.58L10.51 8.14L10.51 8.14Q10.48 7.23 9.88 6.88L9.88 6.88L9.88 6.88Q9.28 6.53 8.26 6.54ZM9.24 9.84L9.24 9.84L9.51 9.47L9.52 11.08L9.52 11.08Q8.65 11.95 8.03 11.90L8.03 11.90L8.03 11.90Q7.40 11.85 6.98 11.48L6.98 11.48L6.98 11.48Q6.56 11.12 6.36 10.64L6.36 10.64L6.36 10.64Q6.17 10.17 6.44 9.71L6.44 9.71L6.44 9.71Q6.71 9.26 7.49 9.19L7.49 9.19L7.49 9.19Q8.28 9.11 9.24 9.84ZM13.01 6.39L11.66 7.22L11.75 7.33L11.75 7.33Q12.38 6.92 12.37 8.52L12.37 8.52L12.37 8.52Q12.30 11.43 12.39 11.88L12.39 11.88L12.39 11.88Q12.48 12.34 13.23 12.70L13.23 12.70L14.23 12.00L14.17 11.86L14.17 11.86Q13.62 12.18 13.49 11.16L13.49 11.16L13.49 11.16Q13.37 10.14 13.45 8.24L13.45 8.24L13.45 8.24Q14.76 6.81 15.72 7.10L15.72 7.10L15.72 7.10Q16.68 7.39 16.54 9.29L16.54 9.29L16.54 9.29Q16.50 11.34 16.55 11.83L16.55 11.83L16.55 11.83Q16.60 12.32 17.19 12.68L17.19 12.68L18.23 11.95L18.14 11.79L18.14 11.79Q17.66 12.04 17.60 11.10L17.60 11.10L17.60 11.10Q17.53 10.17 17.60 8.73L17.60 8.73L17.60 8.73Q17.64 7.85 17.38 7.26L17.38 7.26L17.38 7.26Q17.11 6.68 16.43 6.44L16.43 6.44L16.43 6.44Q15.76 6.20 14.94 6.55L14.94 6.55L14.94 6.55Q14.13 6.90 13.47 7.59L13.47 7.59L13.47 7.59Q13.54 6.75 13.01 6.39L13.01 6.39ZM19.56 8.03L18.61 9.11L18.68 9.21L18.68 9.21Q18.90 8.98 23.00 9.01L23.00 9.01L23.88 7.90L23.73 7.84L23.73 7.84Q23.55 8.08 19.56 8.03L19.56 8.03ZM28.15 3.37L28.15 3.37L28.15 3.37Q27.80 3.37 27.59 3.53L27.59 3.53L27.59 3.53Q27.37 3.68 26.58 4.68L26.58 4.68L26.87 4.89L26.87 4.89Q27.32 4.20 27.63 4.22L27.63 4.22L27.63 4.22Q27.93 4.25 28.09 5.20L28.09 5.20L26.42 8.38L25.79 8.38L24.74 9.40L24.83 9.54L24.83 9.54Q25.54 9.38 26.07 9.43L26.07 9.43L26.07 9.43Q25.42 10.79 25.12 11.34L25.12 11.34L25.12 11.34Q24.82 11.88 24.32 12.50L24.32 12.50L24.36 12.69L26.57 12.68L27.25 11.73L25.46 11.72L25.46 11.72Q25.96 11.47 26.89 9.45L26.89 9.45L29.02 9.39L29.40 9.08L29.40 9.08Q30.30 11.62 30.64 12.11L30.64 12.11L30.64 12.11Q30.98 12.61 31.39 12.76L31.39 12.76L32.09 11.93L32.09 11.93Q31.22 11.35 30.07 7.63L30.07 7.63L30.07 7.63Q28.93 3.91 28.71 3.64L28.71 3.64L28.71 3.64Q28.49 3.36 28.15 3.37ZM28.42 5.99L29.19 8.44L27.24 8.43L28.42 5.99ZM35.12 6.53L35.12 6.53L35.12 6.53Q34.46 6.63 34.01 6.92L34.01 6.92L34.01 6.92Q33.56 7.21 33.20 7.57L33.20 7.57L33.20 7.57Q32.84 7.94 32.74 8.43L32.74 8.43L32.74 8.43Q32.65 8.93 33.08 9.37L33.08 9.37L33.08 9.37Q33.50 9.80 34.56 10.02L34.56 10.02L34.56 10.02Q35.61 10.24 36.01 10.47L36.01 10.47L36.01 10.47Q36.41 10.70 36.50 11.11L36.50 11.11L36.50 11.11Q36.59 11.53 36.29 11.79L36.29 11.79L36.29 11.79Q35.99 12.05 35.21 11.93L35.21 11.93L35.21 11.93Q34.43 11.81 34.03 11.55L34.03 11.55L34.03 11.55Q33.62 11.29 33.26 10.89L33.26 10.89L33.26 10.89Q32.90 10.50 33.17 10.34L33.17 10.34L33.08 10.25L32.31 10.84L32.31 10.84Q32.19 11.20 32.58 11.70L32.58 11.70L32.58 11.70Q32.98 12.21 33.56 12.52L33.56 12.52L33.56 12.52Q34.14 12.82 34.86 12.80L34.86 12.80L34.86 12.80Q35.59 12.78 36.19 12.34L36.19 12.34L36.19 12.34Q36.79 11.90 37.09 11.35L37.09 11.35L37.09 11.35Q37.39 10.81 37.30 10.36L37.30 10.36L37.30 10.36Q37.21 9.91 36.79 9.56L36.79 9.56L36.79 9.56Q36.38 9.20 35.08 8.95L35.08 8.95L35.08 8.95Q33.77 8.70 33.71 8.09L33.71 8.09L33.71 8.09Q33.66 7.48 34.25 7.31L34.25 7.31L34.25 7.31Q34.85 7.14 35.56 7.45L35.56 7.45L35.56 7.45Q36.28 7.76 36.00 8.13L36.00 8.13L36.09 8.24L36.89 7.40L36.89 7.40Q36.79 6.93 36.29 6.68L36.29 6.68L36.29 6.68Q35.79 6.43 35.12 6.53ZM38.86 3.68L38.13 4.38L38.13 4.38Q38.68 4.68 38.80 5.35L38.80 5.35L38.80 5.35Q39.81 4.81 39.58 4.32L39.58 4.32L39.58 4.32Q39.36 3.83 38.86 3.68L38.86 3.68ZM38.29 7.41L38.29 7.41Q38.62 7.39 38.53 9.19L38.53 9.19L38.53 9.19Q38.50 11.33 38.55 11.84L38.55 11.84L38.55 11.84Q38.60 12.35 39.16 12.68L39.16 12.68L39.96 11.84L39.96 11.84Q39.51 11.73 39.57 10.31L39.57 10.31L39.57 10.31Q39.59 7.65 39.57 7.25L39.57 7.25L39.57 7.25Q39.55 6.85 39.20 6.45L39.20 6.45L38.18 7.22L38.29 7.41ZM43.45 6.54L43.45 6.54L43.45 6.54Q42.43 6.56 41.59 7.23L41.59 7.23L41.59 7.23Q40.74 7.90 41.17 8.74L41.17 8.74L42.28 8.07L42.28 8.07Q42.06 6.90 43.49 7.03L43.49 7.03L43.49 7.03Q44.91 7.15 44.73 8.89L44.73 8.89L44.73 8.89Q43.62 8.39 42.74 8.61L42.74 8.61L42.74 8.61Q41.86 8.82 41.13 9.71L41.13 9.71L41.13 9.71Q40.54 10.58 40.75 11.18L40.75 11.18L40.75 11.18Q40.97 11.79 41.45 12.23L41.45 12.23L41.45 12.23Q41.93 12.67 42.53 12.71L42.53 12.71L42.53 12.71Q43.13 12.76 43.54 12.48L43.54 12.48L43.54 12.48Q43.95 12.20 44.74 11.49L44.74 11.49L44.74 11.49Q44.81 12.36 45.30 12.76L45.30 12.76L46.42 11.80L46.33 11.64L46.33 11.64Q45.76 12.10 45.70 10.58L45.70 10.58L45.71 8.14L45.71 8.14Q45.67 7.23 45.07 6.88L45.07 6.88L45.07 6.88Q44.47 6.53 43.45 6.54ZM44.43 9.84L44.43 9.84L44.70 9.47L44.71 11.08L44.71 11.08Q43.84 11.95 43.22 11.90L43.22 11.90L43.22 11.90Q42.59 11.85 42.17 11.48L42.17 11.48L42.17 11.48Q41.75 11.12 41.56 10.64L41.56 10.64L41.56 10.64Q41.36 10.17 41.63 9.71L41.63 9.71L41.63 9.71Q41.90 9.26 42.68 9.19L42.68 9.19L42.68 9.19Q43.47 9.11 44.43 9.84ZM48.20 6.39L46.85 7.22L46.94 7.33L46.94 7.33Q47.57 6.92 47.56 8.52L47.56 8.52L47.56 8.52Q47.49 11.43 47.58 11.88L47.58 11.88L47.58 11.88Q47.67 12.34 48.42 12.70L48.42 12.70L49.42 12.00L49.36 11.86L49.36 11.86Q48.81 12.18 48.69 11.16L48.69 11.16L48.69 11.16Q48.56 10.14 48.64 8.24L48.64 8.24L48.64 8.24Q49.95 6.81 50.91 7.10L50.91 7.10L50.91 7.10Q51.87 7.39 51.73 9.29L51.73 9.29L51.73 9.29Q51.69 11.34 51.74 11.83L51.74 11.83L51.74 11.83Q51.79 12.32 52.38 12.68L52.38 12.68L53.42 11.95L53.33 11.79L53.33 11.79Q52.86 12.04 52.79 11.10L52.79 11.10L52.79 11.10Q52.72 10.17 52.79 8.73L52.79 8.73L52.79 8.73Q52.83 7.85 52.57 7.26L52.57 7.26L52.57 7.26Q52.30 6.68 51.63 6.44L51.63 6.44L51.63 6.44Q50.95 6.20 50.13 6.55L50.13 6.55L50.13 6.55Q49.32 6.90 48.67 7.59L48.67 7.59L48.67 7.59Q48.73 6.75 48.20 6.39L48.20 6.39ZM58.27 3.66L57.16 4.59L57.23 4.82L57.23 4.82Q57.93 4.09 57.74 7.44L57.74 7.44L57.16 8.11L57.76 8.55L57.73 11.57L57.73 11.57Q57.71 12.69 58.69 12.74L58.69 12.74L59.58 12.04L59.45 11.81L59.45 11.81Q58.70 12.51 58.84 9.01L58.84 9.01L58.84 9.01Q60.08 9.39 60.86 8.87L60.86 8.87L60.86 8.87Q61.64 8.34 62.09 7.91L62.09 7.91L62.09 7.91Q62.55 7.47 62.73 6.67L62.73 6.67L62.73 6.67Q62.92 5.86 62.31 4.89L62.31 4.89L62.31 4.89Q61.69 3.92 60.65 3.50L60.65 3.50L58.84 4.87L58.84 4.87Q58.83 4.12 58.27 3.66L58.27 3.66ZM60.10 4.48L60.10 4.48Q60.96 4.75 61.43 5.62L61.43 5.62L61.43 5.62Q61.90 6.49 61.79 7.33L61.79 7.33L61.79 7.33Q61.67 8.18 60.55 8.33L60.55 8.33L60.55 8.33Q59.42 8.47 58.82 7.66L58.82 7.66L58.85 5.44L60.10 4.48ZM64.57 3.53L63.62 4.05L63.62 4.05Q63.92 4.42 63.90 5.35L63.90 5.35L63.90 5.35Q63.72 11.53 63.83 12.01L63.83 12.01L63.83 12.01Q63.94 12.50 64.51 12.80L64.51 12.80L65.83 11.96L65.69 11.72L65.69 11.72Q65.19 12.04 64.94 11.35L64.94 11.35L64.94 11.35Q64.70 10.66 64.91 4.89L64.91 4.89L64.91 4.89Q64.89 3.89 64.57 3.53L64.57 3.53ZM69.21 6.54L69.21 6.54L69.21 6.54Q68.19 6.56 67.34 7.23L67.34 7.23L67.34 7.23Q66.50 7.90 66.92 8.74L66.92 8.74L68.04 8.07L68.04 8.07Q67.82 6.90 69.24 7.03L69.24 7.03L69.24 7.03Q70.67 7.15 70.49 8.89L70.49 8.89L70.49 8.89Q69.38 8.39 68.50 8.61L68.50 8.61L68.50 8.61Q67.62 8.82 66.88 9.71L66.88 9.71L66.88 9.71Q66.29 10.58 66.51 11.18L66.51 11.18L66.51 11.18Q66.73 11.79 67.21 12.23L67.21 12.23L67.21 12.23Q67.69 12.67 68.29 12.71L68.29 12.71L68.29 12.71Q68.89 12.76 69.30 12.48L69.30 12.48L69.30 12.48Q69.71 12.20 70.50 11.49L70.50 11.49L70.50 11.49Q70.57 12.36 71.06 12.76L71.06 12.76L72.17 11.80L72.08 11.64L72.08 11.64Q71.52 12.10 71.46 10.58L71.46 10.58L71.46 8.14L71.46 8.14Q71.43 7.23 70.83 6.88L70.83 6.88L70.83 6.88Q70.23 6.53 69.21 6.54ZM70.18 9.84L70.18 9.84L70.46 9.47L70.46 11.08L70.46 11.08Q69.60 11.95 68.97 11.90L68.97 11.90L68.97 11.90Q68.35 11.85 67.93 11.48L67.93 11.48L67.93 11.48Q67.50 11.12 67.31 10.64L67.31 10.64L67.31 10.64Q67.12 10.17 67.39 9.71L67.39 9.71L67.39 9.71Q67.66 9.26 68.44 9.19L68.44 9.19L68.44 9.19Q69.23 9.11 70.18 9.84ZM74.48 3.96L73.62 4.63L73.62 4.63Q74.09 4.55 73.94 6.59L73.94 6.59L73.36 6.62L72.43 7.56L72.58 7.83L72.58 7.83Q73.02 7.33 73.86 7.41L73.86 7.41L73.86 7.41Q73.72 11.04 73.86 11.58L73.86 11.58L73.86 11.58Q73.99 12.11 74.57 12.68L74.57 12.68L74.57 12.68Q75.02 12.24 76.30 11.30L76.30 11.30L76.21 10.98L76.21 10.98Q74.92 11.88 74.81 10.99L74.81 10.99L74.81 10.99Q74.71 10.09 74.83 7.46L74.83 7.46L75.67 7.46L76.30 6.75L76.24 6.61L74.88 6.64L74.88 4.83L74.88 4.83Q74.81 4.25 74.48 3.96L74.48 3.96ZM80.15 6.60L80.15 6.60L80.15 6.60Q79.08 6.43 78.16 7.26L78.16 7.26L78.16 7.26Q77.23 8.09 76.97 9.20L76.97 9.20L76.97 9.20Q76.71 10.31 77.13 11.26L77.13 11.26L77.13 11.26Q77.55 12.22 78.69 12.62L78.69 12.62L78.69 12.62Q79.62 12.93 80.62 12.18L80.62 12.18L80.62 12.18Q81.63 11.43 81.74 10.84L81.74 10.84L81.53 10.68L81.53 10.68Q80.71 11.85 79.93 11.81L79.93 11.81L79.93 11.81Q79.15 11.76 78.77 11.46L78.77 11.46L78.77 11.46Q78.38 11.15 78.17 10.80L78.17 10.80L80.06 9.54L80.06 9.54Q81.50 8.65 81.36 7.70L81.36 7.70L81.36 7.70Q81.22 6.76 80.15 6.60ZM77.72 8.75L77.72 8.75L77.72 8.75Q77.72 8.12 78.23 7.58L78.23 7.58L78.23 7.58Q78.74 7.04 79.33 7.19L79.33 7.19L79.33 7.19Q79.93 7.34 80.17 8.00L80.17 8.00L80.17 8.00Q80.40 8.67 80.11 9.02L80.11 9.02L80.11 9.02Q79.82 9.37 77.99 10.40L77.99 10.40L77.99 10.40Q77.83 10.04 77.77 9.71L77.77 9.71L77.77 9.71Q77.71 9.37 77.72 8.75Z"></path></g><!----><g data-v-423bf9ae="" id="41047f03-b2e7-4d6c-bc22-f333e5396b63" transform="matrix(2.8125,0,0,2.8125,0,1.0090609788894653)" stroke="none" fill="black"><path d="M31 .995v30H1v-30h30m1-1H0v32h32v-32z"></path><path d="M16 7.045L24.955 16 16 24.955 7.045 16 16 7.045m0-1.414L5.631 16 16 26.369 26.369 16 16 5.631z"></path><path d="M16 12.538L19.462 16 16 19.462 12.538 16 16 12.538m0-1.414L11.124 16 16 20.876 20.876 16 16 11.124z"></path></g><!----><g data-v-423bf9ae="" id="fc51cd48-5cff-40b5-b067-2b088585e1c8" fill="black" transform="matrix(1.1909926249940828,0,0,1.1909926249940828,110.56470259176248,59.16501768303656)"><path d="M4.21 2.21L4.21 2.21Q3.58 2.38 3.54 2.63L3.54 2.63L3.54 2.63Q3.49 3.01 3.33 4.51L3.33 4.51L3.33 4.51Q3.21 5.69 3.07 6.41L3.07 6.41L3.07 6.41Q2.67 8.57 1.57 9.83L1.57 9.83L1.57 9.83Q1.42 10.00 1.31 10.12L1.31 10.12L1.31 10.12Q1.05 9.61 1.00 8.40L1.00 8.40L1.00 8.40Q0.95 6.90 1.87 4.58L1.87 4.58L1.87 4.58Q2.56 2.88 2.72 2.40L2.72 2.40L2.72 2.40Q2.81 2.15 2.14 2.26L2.14 2.26L2.14 2.26Q1.37 2.41 1.28 2.66L1.28 2.66L1.28 2.66Q1.11 3.12 0.56 4.53L0.56 4.53L0.56 4.53Q0.10 5.71-0.12 6.43L-0.12 6.43L-0.12 6.43Q-0.78 8.66-0.21 10.36L-0.21 10.36L-0.21 10.36Q-0.11 10.68 0.09 10.83L0.09 10.83L0.09 10.83Q0.32 11.03 0.96 10.92L0.96 10.92L0.96 10.92Q1.98 10.73 2.88 9.71L2.88 9.71L2.88 9.71Q4.05 8.41 4.48 6.34L4.48 6.34L4.48 6.34Q4.64 5.55 4.78 4.29L4.78 4.29L4.78 4.29Q4.96 2.58 5.00 2.24L5.00 2.24L5.00 2.24Q5.02 2.11 4.63 2.14L4.63 2.14L4.63 2.14Q4.38 2.16 4.21 2.21L4.21 2.21ZM17.47 0.74L17.47 0.74Q17.17 0.79 16.91 0.91L16.91 0.91L16.91 0.91Q16.64 1.04 16.61 1.13L16.61 1.13L16.61 1.13Q15.73 3.96 15.11 7.39L15.11 7.39L15.11 7.39Q15.03 6.88 14.91 6.21L14.91 6.21L14.91 6.21Q14.62 4.44 14.57 4.05L14.57 4.05L14.57 4.05Q14.42 2.77 14.23 2.37L14.23 2.37L14.23 2.37Q14.23 2.37 14.21 2.35L14.21 2.35L14.22 2.34L14.22 2.34Q14.22 2.34 14.22 2.33L14.22 2.33L14.22 2.33Q14.26 2.08 13.63 2.20L13.63 2.20L13.63 2.20Q13.33 2.26 13.08 2.37L13.08 2.37L13.08 2.37Q12.79 2.51 12.78 2.60L12.78 2.60L12.78 2.60Q12.59 3.71 11.95 6.73L11.95 6.73L11.95 6.73Q11.40 9.34 11.20 10.89L11.20 10.89L11.20 10.89Q11.18 11.01 11.57 10.98L11.57 10.98L11.57 10.98Q11.82 10.96 11.99 10.91L11.99 10.91L11.99 10.91Q12.63 10.74 12.66 10.50L12.66 10.50L12.66 10.50Q12.86 8.97 13.41 6.38L13.41 6.38L13.41 6.38Q13.44 6.54 13.45 6.61L13.45 6.61L13.45 6.61Q13.67 7.90 13.84 8.95L13.84 8.95L13.84 8.95Q14.10 10.45 14.33 11.09L14.33 11.09L14.33 11.09Q14.38 11.24 14.72 11.21L14.72 11.21L14.72 11.21Q15.04 11.18 15.37 11.05L15.37 11.05L15.37 11.05Q15.96 10.89 16.00 10.65L16.00 10.65L16.00 10.65Q16.77 5.00 18.05 0.87L18.05 0.87L18.05 0.87Q18.14 0.62 17.47 0.74L17.47 0.74ZM29.15 1.54L29.15 1.54Q28.72 0.91 27.54 1.20L27.54 1.20L27.54 1.20Q26.58 1.43 25.94 2.14L25.94 2.14L25.94 2.14Q24.92 3.26 24.49 5.40L24.49 5.40L24.49 5.40Q24.20 6.86 24.10 8.67L24.10 8.67L24.10 8.67Q24.09 9.98 24.23 10.47L24.23 10.47L24.23 10.47Q24.50 11.44 25.59 11.50L25.59 11.50L25.59 11.50Q26.21 11.53 26.80 11.27L26.80 11.27L26.80 11.27Q27.39 10.99 27.76 10.51L27.76 10.51L27.76 10.51Q28.14 10.02 28.47 8.89L28.47 8.89L28.47 8.89Q28.55 8.64 27.89 8.76L27.89 8.76L27.89 8.76Q27.59 8.81 27.34 8.93L27.34 8.93L27.34 8.93Q27.06 9.06 27.04 9.15L27.04 9.15L27.04 9.15Q26.79 9.99 26.52 10.48L26.52 10.48L26.52 10.48Q26.40 10.68 26.27 10.83L26.27 10.83L26.27 10.83Q25.70 10.58 25.58 9.66L25.58 9.66L25.58 9.66Q25.55 9.42 25.57 8.20L25.57 8.20L25.57 8.20Q25.66 6.41 25.98 4.92L25.98 4.92L25.98 4.92Q26.44 2.75 27.47 1.80L27.47 1.80L27.47 1.80Q27.49 1.79 27.51 1.76L27.51 1.76L27.51 1.76Q27.88 2.01 27.97 2.75L27.97 2.75L27.97 2.75Q28.05 3.36 27.84 4.29L27.84 4.29L27.84 4.29Q27.50 5.76 27.49 5.80L27.49 5.80L27.49 5.80Q27.47 5.92 27.86 5.89L27.86 5.89L27.86 5.89Q28.12 5.87 28.28 5.82L28.28 5.82L28.28 5.82Q28.92 5.65 28.96 5.41L28.96 5.41L28.96 5.41Q29.00 5.07 29.16 4.41L29.16 4.41L29.16 4.41Q29.33 3.74 29.38 3.40L29.38 3.40L29.38 3.40Q29.57 2.17 29.15 1.54L29.15 1.54ZM39.22 5.20L39.22 5.20Q39.09 6.64 38.83 7.92L38.83 7.92L38.83 7.92Q38.42 9.88 37.65 10.64L37.65 10.64L37.65 10.64Q37.56 10.55 37.48 10.38L37.48 10.38L37.48 10.38Q37.30 9.97 37.31 9.03L37.31 9.03L37.31 9.03Q37.34 7.34 37.91 5.48L37.91 5.48L37.91 5.48Q38.41 3.85 39.11 3.01L39.11 3.01L39.11 3.01Q39.18 3.25 39.23 3.62L39.23 3.62L39.23 3.62Q39.30 4.21 39.22 5.20L39.22 5.20ZM40.15 1.96L40.15 1.96Q39.94 1.79 39.20 2.05L39.20 2.05L39.20 2.05Q38.71 2.24 38.73 2.39L38.73 2.39L38.73 2.39Q38.47 2.48 38.29 2.63L38.29 2.63L38.29 2.63Q37.31 3.40 36.65 5.22L36.65 5.22L36.65 5.22Q36.10 6.70 35.91 8.50L35.91 8.50L35.91 8.50Q35.83 9.28 35.85 9.92L35.85 9.92L35.85 9.92Q35.90 10.77 36.26 11.13L36.26 11.13L36.26 11.13Q36.44 11.31 36.87 11.33L36.87 11.33L36.87 11.33Q37.41 11.36 38.24 11.02L38.24 11.02L38.24 11.02Q38.92 10.74 39.44 9.94L39.44 9.94L39.44 9.94Q39.92 9.21 40.23 7.85L40.23 7.85L40.23 7.85Q40.44 6.94 40.56 5.84L40.56 5.84L40.56 5.84Q40.73 4.44 40.73 3.78L40.73 3.78L40.73 3.78Q40.71 2.45 40.15 1.96L40.15 1.96ZM52.96 2.13L52.96 2.13Q52.91 1.90 52.18 2.08L52.18 2.08L52.18 2.08Q51.44 2.27 51.50 2.52L51.50 2.52L51.50 2.52Q51.60 3.04 51.43 3.73L51.43 3.73L51.43 3.73Q51.37 3.96 51.26 4.33L51.26 4.33L51.26 4.33Q51.12 4.77 51.08 4.92L51.08 4.92L51.08 4.92Q50.71 6.24 50.47 6.97L50.47 6.97L50.47 6.97Q50.13 7.99 49.82 8.65L49.82 8.65L49.82 8.65Q49.85 2.78 49.83 2.18L49.83 2.18L49.83 2.18Q49.83 2.09 49.59 2.08L49.59 2.08L49.59 2.08Q49.38 2.07 49.09 2.13L49.09 2.13L49.09 2.13Q48.36 2.29 48.36 2.58L48.36 2.58L48.36 2.58Q48.42 4.06 48.38 6.67L48.38 6.67L48.38 6.67Q48.34 9.59 48.36 10.75L48.36 10.75L48.36 10.75Q48.36 10.93 48.96 10.82L48.96 10.82L48.96 10.82Q49.51 10.72 49.76 10.50L49.76 10.50L49.76 10.50Q51.00 9.40 51.89 6.77L51.89 6.77L51.89 6.77Q52.12 6.07 52.52 4.65L52.52 4.65L52.52 4.65Q53.07 2.69 52.96 2.13L52.96 2.13ZM64.04 1.42L64.04 1.42Q63.33 1.19 62.15 1.57L62.15 1.57L62.15 1.57Q60.63 2.06 60.07 3.77L60.07 3.77L60.07 3.77Q59.73 4.83 59.90 6.11L59.90 6.11L59.90 6.11Q59.99 6.76 60.26 7.16L60.26 7.16L60.26 7.16Q59.84 7.38 59.55 7.70L59.55 7.70L59.55 7.70Q58.55 8.80 58.66 10.01L58.66 10.01L58.66 10.01Q58.73 10.70 59.21 11.11L59.21 11.11L59.21 11.11Q59.60 11.44 60.43 11.42L60.43 11.42L60.43 11.42Q61.26 11.39 61.97 10.95L61.97 10.95L61.97 10.95Q62.72 10.49 63.02 9.76L63.02 9.76L63.02 9.76Q63.08 9.61 62.80 9.60L62.80 9.60L62.80 9.60Q62.63 9.59 62.44 9.63L62.44 9.63L62.44 9.63Q61.69 9.76 61.58 10.02L61.58 10.02L61.58 10.02Q61.39 10.51 61.04 10.80L61.04 10.80L61.04 10.80Q61.02 10.81 61.01 10.82L61.01 10.82L61.01 10.82Q60.96 10.81 60.96 10.81L60.96 10.81L60.96 10.81Q60.89 10.79 60.81 10.75L60.81 10.75L60.81 10.75Q60.64 10.68 60.48 10.52L60.48 10.52L60.48 10.52Q60.20 10.23 60.12 9.63L60.12 9.63L60.12 9.63Q60.03 8.83 60.66 7.86L60.66 7.86L60.66 7.86Q60.74 7.74 60.84 7.62L60.84 7.62L60.84 7.62Q61.05 7.70 61.33 7.72L61.33 7.72L61.33 7.72Q61.73 7.74 62.22 7.51L62.22 7.51L62.22 7.51Q62.64 7.32 62.49 7.18L62.49 7.18L62.49 7.18Q62.20 6.90 61.78 6.84L61.78 6.84L61.78 6.84Q61.74 6.79 61.70 6.75L61.70 6.75L61.70 6.75Q61.50 6.45 61.39 5.89L61.39 5.89L61.39 5.89Q61.20 4.89 61.38 4.00L61.38 4.00L61.38 4.00Q61.65 2.70 62.41 2.04L62.41 2.04L62.41 2.04Q62.47 2.00 62.56 1.93L62.56 1.93L62.56 1.93Q62.57 1.93 62.57 1.93L62.57 1.93L62.57 1.93Q62.70 1.94 62.68 1.93L62.68 1.93L62.68 1.93Q63.26 2.02 63.14 2.62L63.14 2.62L63.14 2.62Q63.10 2.86 63.72 2.75L63.72 2.75L63.72 2.75Q64.03 2.69 64.29 2.58L64.29 2.58L64.29 2.58Q64.57 2.45 64.59 2.36L64.59 2.36L64.59 2.36Q64.72 1.63 64.04 1.42L64.04 1.42ZM74.29 5.31L74.29 5.31Q74.14 6.24 73.25 7.18L73.25 7.18L73.25 7.18Q73.06 7.38 72.82 7.58L72.82 7.58L72.82 7.58Q72.75 7.63 72.69 7.68L72.69 7.68L72.69 7.68Q72.47 7.59 72.22 7.58L72.22 7.58L72.22 7.58Q72.78 4.74 72.93 2.66L72.93 2.66L72.93 2.66Q73.19 2.80 73.43 2.99L73.43 2.99L73.43 2.99Q73.94 3.39 74.18 4.03L74.18 4.03L74.18 4.03Q74.40 4.65 74.29 5.31L74.29 5.31ZM71.32 2.40L71.32 2.40Q71.32 2.40 71.33 2.39L71.33 2.39L71.33 2.39Q71.33 2.40 71.32 2.40L71.32 2.40ZM76.25 11.42L76.25 11.42Q75.52 10.88 73.99 8.99L73.99 8.99L73.99 8.99Q73.32 8.17 73.21 8.05L73.21 8.05L73.21 8.05Q73.66 7.84 74.09 7.50L74.09 7.50L74.09 7.50Q75.30 6.56 75.65 5.41L75.65 5.41L75.65 5.41Q75.90 4.60 75.69 3.84L75.69 3.84L75.69 3.84Q75.48 3.07 74.86 2.53L74.86 2.53L74.86 2.53Q73.62 1.46 71.54 1.88L71.54 1.88L71.54 1.88Q71.42 1.91 71.22 1.96L71.22 1.96L71.22 1.96Q70.48 2.14 70.54 2.37L70.54 2.37L70.54 2.37Q70.60 2.58 71.31 2.40L71.31 2.40L71.31 2.40Q71.38 2.39 71.43 2.38L71.43 2.38L71.43 2.38Q71.47 2.37 71.50 2.37L71.50 2.37L71.50 2.37Q71.39 5.11 70.15 10.79L70.15 10.79L70.15 10.79Q70.10 11.04 70.73 10.92L70.73 10.92L70.73 10.92Q71.04 10.87 71.29 10.75L71.29 10.75L71.29 10.75Q71.57 10.62 71.59 10.53L71.59 10.53L71.59 10.53Q71.89 9.17 71.98 8.72L71.98 8.72L71.98 8.72Q71.99 8.72 71.99 8.72L71.99 8.72L71.99 8.72Q72.00 8.72 72.00 8.72L72.00 8.72L72.00 8.72Q72.11 8.85 72.79 9.70L72.79 9.70L72.79 9.70Q74.11 11.34 74.87 11.92L74.87 11.92L74.87 11.92Q75.10 12.09 75.82 11.83L75.82 11.83L75.82 11.83Q76.00 11.76 76.15 11.67L76.15 11.67L76.15 11.67Q76.39 11.52 76.25 11.42L76.25 11.42ZM95.53 7.89L95.53 7.89Q95.42 7.90 94.52 7.84L94.52 7.84L94.52 7.84Q94.93 6.63 95.39 5.57L95.39 5.57L95.39 5.57Q95.55 5.18 96.10 3.95L96.10 3.95L96.10 3.95Q96.08 4.61 95.89 7.85L95.89 7.85L95.89 7.85Q95.72 7.87 95.53 7.89L95.53 7.89ZM97.34 1.18L97.34 1.18Q97.15 1.09 96.77 1.16L96.77 1.16L96.77 1.16Q96.13 1.27 95.92 1.55L95.92 1.55L95.92 1.55Q95.72 1.80 94.94 3.58L94.94 3.58L94.94 3.58Q94.80 3.90 94.44 4.70L94.44 4.70L94.44 4.70Q94.12 5.42 93.95 5.83L93.95 5.83L93.95 5.83Q93.53 6.79 93.15 7.86L93.15 7.86L93.15 7.86Q92.23 7.97 91.58 8.37L91.58 8.37L91.58 8.37Q91.40 8.48 91.43 8.58L91.43 8.58L91.43 8.58Q91.46 8.67 91.66 8.68L91.66 8.68L91.66 8.68Q92.18 8.70 92.65 8.43L92.65 8.43L92.65 8.43Q92.80 8.41 92.85 8.41L92.85 8.41L92.85 8.41Q92.91 8.41 92.97 8.41L92.97 8.41L92.97 8.41Q92.65 9.39 92.33 10.53L92.33 10.53L92.33 10.53Q92.26 10.79 92.91 10.67L92.91 10.67L92.91 10.67Q93.21 10.62 93.47 10.49L93.47 10.49L93.47 10.49Q93.74 10.37 93.77 10.27L93.77 10.27L93.77 10.27Q94.04 9.32 94.31 8.48L94.31 8.48L94.31 8.48Q94.60 8.50 94.80 8.47L94.80 8.47L94.80 8.47Q95.50 8.39 95.86 8.46L95.86 8.46L95.86 8.46Q95.75 10.55 95.75 12.02L95.75 12.02L95.75 12.02Q95.75 12.10 95.98 12.11L95.98 12.11L95.98 12.11Q96.20 12.12 96.48 12.06L96.48 12.06L96.48 12.06Q97.21 11.91 97.21 11.62L97.21 11.62L97.21 11.62Q97.21 9.90 97.42 6.45L97.42 6.45L97.42 6.45Q97.62 3.00 97.62 1.27L97.62 1.27L97.62 1.27Q97.62 1.18 97.34 1.18L97.34 1.18ZM109.54 2.21L109.54 2.21Q108.90 2.38 108.87 2.63L108.87 2.63L108.87 2.63Q108.81 3.01 108.66 4.51L108.66 4.51L108.66 4.51Q108.53 5.69 108.40 6.41L108.40 6.41L108.40 6.41Q107.99 8.57 106.89 9.83L106.89 9.83L106.89 9.83Q106.74 10.00 106.63 10.12L106.63 10.12L106.63 10.12Q106.37 9.61 106.33 8.40L106.33 8.40L106.33 8.40Q106.28 6.90 107.20 4.58L107.20 4.58L107.20 4.58Q107.88 2.88 108.05 2.40L108.05 2.40L108.05 2.40Q108.14 2.15 107.47 2.26L107.47 2.26L107.47 2.26Q106.70 2.41 106.61 2.66L106.61 2.66L106.61 2.66Q106.44 3.12 105.89 4.53L105.89 4.53L105.89 4.53Q105.42 5.71 105.21 6.43L105.21 6.43L105.21 6.43Q104.55 8.66 105.12 10.36L105.12 10.36L105.12 10.36Q105.22 10.68 105.42 10.83L105.42 10.83L105.42 10.83Q105.65 11.03 106.29 10.92L106.29 10.92L106.29 10.92Q107.30 10.73 108.21 9.71L108.21 9.71L108.21 9.71Q109.38 8.41 109.81 6.34L109.81 6.34L109.81 6.34Q109.97 5.55 110.11 4.29L110.11 4.29L110.11 4.29Q110.28 2.58 110.33 2.24L110.33 2.24L110.33 2.24Q110.35 2.11 109.96 2.14L109.96 2.14L109.96 2.14Q109.71 2.16 109.54 2.21L109.54 2.21ZM121.69 2.35L121.69 2.35Q120.73 2.17 119.72 2.15L119.72 2.15L119.72 2.15Q119.63 2.03 119.15 2.11L119.15 2.11L119.15 2.11Q119.05 2.13 118.94 2.16L118.94 2.16L118.94 2.16Q117.87 2.22 116.83 2.46L116.83 2.46L116.83 2.46Q116.09 2.63 116.16 2.88L116.16 2.88L116.16 2.88Q116.21 3.08 116.94 2.91L116.94 2.91L116.94 2.91Q116.94 2.91 116.96 2.90L116.96 2.90L116.96 2.90Q116.97 2.90 116.98 2.89L116.98 2.89L116.98 2.89Q117.06 2.88 117.22 2.85L117.22 2.85L117.22 2.85Q117.38 2.82 117.61 2.80L117.61 2.80L117.61 2.80Q117.89 2.76 118.22 2.75L118.22 2.75L118.22 2.75Q116.81 7.40 116.41 10.96L116.41 10.96L116.41 10.96Q116.40 11.02 116.63 11.03L116.63 11.03L116.63 11.03Q116.84 11.04 117.12 10.99L117.12 10.99L117.12 10.99Q117.84 10.86 117.87 10.56L117.87 10.56L117.87 10.56Q118.25 7.19 119.57 2.78L119.57 2.78L119.57 2.78Q120.04 2.82 120.48 2.91L120.48 2.91L120.48 2.91Q120.91 2.99 121.50 2.72L121.50 2.72L121.50 2.72Q121.66 2.65 121.75 2.54L121.75 2.54L121.75 2.54Q121.90 2.39 121.69 2.35L121.69 2.35ZM132.63 1.31L132.63 1.31Q132.32 1.36 132.07 1.48L132.07 1.48L132.07 1.48Q131.79 1.61 131.77 1.70L131.77 1.70L131.77 1.70Q131.57 2.55 131.12 4.25L131.12 4.25L131.12 4.25Q130.67 5.94 130.47 6.80L130.47 6.80L130.47 6.80Q129.82 6.88 129.14 7.03L129.14 7.03L129.14 7.03Q129.35 6.04 129.76 4.31L129.76 4.31L129.76 4.31Q130.22 2.37 130.39 1.59L130.39 1.59L130.39 1.59Q130.44 1.34 129.81 1.46L129.81 1.46L129.81 1.46Q129.51 1.51 129.25 1.63L129.25 1.63L129.25 1.63Q128.97 1.76 128.95 1.85L128.95 1.85L128.95 1.85Q128.78 2.61 128.30 4.64L128.30 4.64L128.30 4.64Q127.89 6.41 127.67 7.44L127.67 7.44L127.67 7.44Q127.54 7.49 127.50 7.50L127.50 7.50L127.50 7.50Q127.35 7.55 127.18 7.66L127.18 7.66L127.18 7.66Q126.93 7.82 127.07 7.91L127.07 7.91L127.07 7.91Q127.24 8.01 127.57 7.94L127.57 7.94L127.57 7.94Q127.25 9.65 127.13 11.08L127.13 11.08L127.13 11.08Q127.12 11.15 127.35 11.16L127.35 11.16L127.35 11.16Q127.56 11.17 127.84 11.12L127.84 11.12L127.84 11.12Q128.56 10.98 128.58 10.69L128.58 10.69L128.58 10.69Q128.71 9.26 129.04 7.53L129.04 7.53L129.04 7.53Q129.25 7.49 129.60 7.42L129.60 7.42L129.60 7.42Q129.97 7.36 130.35 7.33L130.35 7.33L130.35 7.33Q129.88 9.44 129.79 11.13L129.79 11.13L129.79 11.13Q129.79 11.20 130.02 11.21L130.02 11.21L130.02 11.21Q130.23 11.22 130.51 11.17L130.51 11.17L130.51 11.17Q131.24 11.03 131.26 10.74L131.26 10.74L131.26 10.74Q131.34 9.17 131.75 7.25L131.75 7.25L131.75 7.25Q132.08 7.18 132.34 7.02L132.34 7.02L132.34 7.02Q132.52 6.91 132.49 6.82L132.49 6.82L132.49 6.82Q132.47 6.72 132.26 6.71L132.26 6.71L132.26 6.71Q132.09 6.71 131.87 6.71L131.87 6.71L131.87 6.71Q132.08 5.79 132.54 4.07L132.54 4.07L132.54 4.07Q133.01 2.28 133.21 1.44L133.21 1.44L133.21 1.44Q133.27 1.19 132.63 1.31L132.63 1.31ZM144.44 1.42L144.44 1.42Q143.73 1.19 142.54 1.57L142.54 1.57L142.54 1.57Q141.03 2.06 140.47 3.77L140.47 3.77L140.47 3.77Q140.12 4.83 140.30 6.11L140.30 6.11L140.30 6.11Q140.39 6.76 140.66 7.16L140.66 7.16L140.66 7.16Q140.24 7.38 139.95 7.70L139.95 7.70L139.95 7.70Q138.95 8.80 139.06 10.01L139.06 10.01L139.06 10.01Q139.13 10.70 139.60 11.11L139.60 11.11L139.60 11.11Q140 11.44 140.83 11.42L140.83 11.42L140.83 11.42Q141.66 11.39 142.37 10.95L142.37 10.95L142.37 10.95Q143.12 10.49 143.42 9.76L143.42 9.76L143.42 9.76Q143.48 9.61 143.20 9.60L143.20 9.60L143.20 9.60Q143.03 9.59 142.84 9.63L142.84 9.63L142.84 9.63Q142.08 9.76 141.98 10.02L141.98 10.02L141.98 10.02Q141.78 10.51 141.44 10.80L141.44 10.80L141.44 10.80Q141.42 10.81 141.41 10.82L141.41 10.82L141.41 10.82Q141.36 10.81 141.35 10.81L141.35 10.81L141.35 10.81Q141.29 10.79 141.20 10.75L141.20 10.75L141.20 10.75Q141.04 10.68 140.88 10.52L140.88 10.52L140.88 10.52Q140.59 10.23 140.52 9.63L140.52 9.63L140.52 9.63Q140.42 8.83 141.05 7.86L141.05 7.86L141.05 7.86Q141.13 7.74 141.24 7.62L141.24 7.62L141.24 7.62Q141.45 7.70 141.72 7.72L141.72 7.72L141.72 7.72Q142.13 7.74 142.62 7.51L142.62 7.51L142.62 7.51Q143.04 7.32 142.88 7.18L142.88 7.18L142.88 7.18Q142.60 6.90 142.17 6.84L142.17 6.84L142.17 6.84Q142.13 6.79 142.10 6.75L142.10 6.75L142.10 6.75Q141.89 6.45 141.78 5.89L141.78 5.89L141.78 5.89Q141.59 4.89 141.78 4.00L141.78 4.00L141.78 4.00Q142.04 2.70 142.81 2.04L142.81 2.04L142.81 2.04Q142.86 2.00 142.96 1.93L142.96 1.93L142.96 1.93Q142.97 1.93 142.97 1.93L142.97 1.93L142.97 1.93Q143.10 1.94 143.08 1.93L143.08 1.93L143.08 1.93Q143.66 2.02 143.54 2.62L143.54 2.62L143.54 2.62Q143.49 2.86 144.12 2.75L144.12 2.75L144.12 2.75Q144.43 2.69 144.68 2.58L144.68 2.58L144.68 2.58Q144.96 2.45 144.98 2.36L144.98 2.36L144.98 2.36Q145.12 1.63 144.44 1.42L144.44 1.42ZM156.72 0.74L156.72 0.74Q156.41 0.79 156.16 0.91L156.16 0.91L156.16 0.91Q155.89 1.04 155.86 1.13L155.86 1.13L155.86 1.13Q154.98 3.96 154.36 7.39L154.36 7.39L154.36 7.39Q154.27 6.88 154.16 6.21L154.16 6.21L154.16 6.21Q153.86 4.44 153.82 4.05L153.82 4.05L153.82 4.05Q153.67 2.77 153.47 2.37L153.47 2.37L153.47 2.37Q153.47 2.37 153.46 2.35L153.46 2.35L153.47 2.34L153.47 2.34Q153.47 2.34 153.47 2.33L153.47 2.33L153.47 2.33Q153.51 2.08 152.88 2.20L152.88 2.20L152.88 2.20Q152.58 2.26 152.33 2.37L152.33 2.37L152.33 2.37Q152.04 2.51 152.02 2.60L152.02 2.60L152.02 2.60Q151.84 3.71 151.20 6.73L151.20 6.73L151.20 6.73Q150.65 9.34 150.45 10.89L150.45 10.89L150.45 10.89Q150.43 11.01 150.81 10.98L150.81 10.98L150.81 10.98Q151.07 10.96 151.24 10.91L151.24 10.91L151.24 10.91Q151.88 10.74 151.91 10.50L151.91 10.50L151.91 10.50Q152.11 8.97 152.66 6.38L152.66 6.38L152.66 6.38Q152.69 6.54 152.69 6.61L152.69 6.61L152.69 6.61Q152.91 7.90 153.09 8.95L153.09 8.95L153.09 8.95Q153.35 10.45 153.58 11.09L153.58 11.09L153.58 11.09Q153.63 11.24 153.97 11.21L153.97 11.21L153.97 11.21Q154.29 11.18 154.62 11.05L154.62 11.05L154.62 11.05Q155.21 10.89 155.24 10.65L155.24 10.65L155.24 10.65Q156.02 5.00 157.30 0.87L157.30 0.87L157.30 0.87Q157.38 0.62 156.72 0.74L156.72 0.74ZM168.09 2.35L168.09 2.35Q167.13 2.17 166.13 2.15L166.13 2.15L166.13 2.15Q166.03 2.03 165.55 2.11L165.55 2.11L165.55 2.11Q165.46 2.13 165.34 2.16L165.34 2.16L165.34 2.16Q164.27 2.22 163.24 2.46L163.24 2.46L163.24 2.46Q162.50 2.63 162.57 2.88L162.57 2.88L162.57 2.88Q162.61 3.08 163.34 2.91L163.34 2.91L163.34 2.91Q163.34 2.91 163.36 2.90L163.36 2.90L163.36 2.90Q163.37 2.90 163.39 2.89L163.39 2.89L163.39 2.89Q163.46 2.88 163.62 2.85L163.62 2.85L163.62 2.85Q163.78 2.82 164.01 2.80L164.01 2.80L164.01 2.80Q164.29 2.76 164.62 2.75L164.62 2.75L164.62 2.75Q163.21 7.40 162.81 10.96L162.81 10.96L162.81 10.96Q162.80 11.02 163.03 11.03L163.03 11.03L163.03 11.03Q163.24 11.04 163.52 10.99L163.52 10.99L163.52 10.99Q164.25 10.86 164.27 10.56L164.27 10.56L164.27 10.56Q164.65 7.19 165.97 2.78L165.97 2.78L165.97 2.78Q166.44 2.82 166.88 2.91L166.88 2.91L166.88 2.91Q167.32 2.99 167.90 2.72L167.90 2.72L167.90 2.72Q168.06 2.65 168.16 2.54L168.16 2.54L168.16 2.54Q168.30 2.39 168.09 2.35L168.09 2.35ZM175.21 2.53L175.21 2.53Q174.96 3.62 174.34 6.79L174.34 6.79L174.34 6.79Q174.10 8.03 173.91 8.93L173.91 8.93L173.91 8.93Q173.52 10.78 173.52 10.91L173.52 10.91L173.52 10.91Q173.52 10.99 173.74 11.00L173.74 11.00L173.74 11.00Q173.96 11.01 174.24 10.96L174.24 10.96L174.24 10.96Q174.97 10.81 174.98 10.52L174.98 10.52L174.98 10.52Q174.99 10.23 175.14 9.62L175.14 9.62L175.14 9.62Q175.22 9.32 175.38 8.57L175.38 8.57L175.38 8.57Q175.55 7.77 175.81 6.44L175.81 6.44L175.81 6.44Q176.40 3.36 176.65 2.27L176.65 2.27L176.65 2.27Q176.70 2.02 176.06 2.13L176.06 2.13L176.06 2.13Q175.76 2.19 175.51 2.31L175.51 2.31L175.51 2.31Q175.23 2.44 175.21 2.53L175.21 2.53ZM188.45 1.54L188.45 1.54Q188.02 0.91 186.84 1.20L186.84 1.20L186.84 1.20Q185.88 1.43 185.24 2.14L185.24 2.14L185.24 2.14Q184.23 3.26 183.80 5.40L183.80 5.40L183.80 5.40Q183.50 6.86 183.41 8.67L183.41 8.67L183.41 8.67Q183.39 9.98 183.53 10.47L183.53 10.47L183.53 10.47Q183.80 11.44 184.89 11.50L184.89 11.50L184.89 11.50Q185.51 11.53 186.10 11.27L186.10 11.27L186.10 11.27Q186.70 10.99 187.07 10.51L187.07 10.51L187.07 10.51Q187.44 10.02 187.78 8.89L187.78 8.89L187.78 8.89Q187.85 8.64 187.20 8.76L187.20 8.76L187.20 8.76Q186.89 8.81 186.64 8.93L186.64 8.93L186.64 8.93Q186.37 9.06 186.34 9.15L186.34 9.15L186.34 9.15Q186.09 9.99 185.82 10.48L185.82 10.48L185.82 10.48Q185.71 10.68 185.58 10.83L185.58 10.83L185.58 10.83Q185.01 10.58 184.88 9.66L184.88 9.66L184.88 9.66Q184.86 9.42 184.87 8.20L184.87 8.20L184.87 8.20Q184.97 6.41 185.28 4.92L185.28 4.92L185.28 4.92Q185.75 2.75 186.78 1.80L186.78 1.80L186.78 1.80Q186.79 1.79 186.82 1.76L186.82 1.76L186.82 1.76Q187.18 2.01 187.28 2.75L187.28 2.75L187.28 2.75Q187.35 3.36 187.14 4.29L187.14 4.29L187.14 4.29Q186.81 5.76 186.80 5.80L186.80 5.80L186.80 5.80Q186.78 5.92 187.16 5.89L187.16 5.89L187.16 5.89Q187.42 5.87 187.58 5.82L187.58 5.82L187.58 5.82Q188.22 5.65 188.26 5.41L188.26 5.41L188.26 5.41Q188.31 5.07 188.47 4.41L188.47 4.41L188.47 4.41Q188.63 3.74 188.69 3.40L188.69 3.40L188.69 3.40Q188.88 2.17 188.45 1.54L188.45 1.54ZM208.17 7.89L208.17 7.89Q208.07 7.90 207.16 7.84L207.16 7.84L207.16 7.84Q207.57 6.63 208.03 5.57L208.03 5.57L208.03 5.57Q208.20 5.18 208.74 3.95L208.74 3.95L208.74 3.95Q208.72 4.61 208.54 7.85L208.54 7.85L208.54 7.85Q208.37 7.87 208.17 7.89L208.17 7.89ZM209.98 1.18L209.98 1.18Q209.79 1.09 209.41 1.16L209.41 1.16L209.41 1.16Q208.77 1.27 208.56 1.55L208.56 1.55L208.56 1.55Q208.36 1.80 207.58 3.58L207.58 3.58L207.58 3.58Q207.44 3.90 207.08 4.70L207.08 4.70L207.08 4.70Q206.77 5.42 206.59 5.83L206.59 5.83L206.59 5.83Q206.17 6.79 205.80 7.86L205.80 7.86L205.80 7.86Q204.87 7.97 204.22 8.37L204.22 8.37L204.22 8.37Q204.05 8.48 204.07 8.58L204.07 8.58L204.07 8.58Q204.10 8.67 204.31 8.68L204.31 8.68L204.31 8.68Q204.83 8.70 205.30 8.43L205.30 8.43L205.30 8.43Q205.44 8.41 205.49 8.41L205.49 8.41L205.49 8.41Q205.55 8.41 205.61 8.41L205.61 8.41L205.61 8.41Q205.29 9.39 204.97 10.53L204.97 10.53L204.97 10.53Q204.90 10.79 205.56 10.67L205.56 10.67L205.56 10.67Q205.86 10.62 206.11 10.49L206.11 10.49L206.11 10.49Q206.38 10.37 206.41 10.27L206.41 10.27L206.41 10.27Q206.68 9.32 206.95 8.48L206.95 8.48L206.95 8.48Q207.25 8.50 207.44 8.47L207.44 8.47L207.44 8.47Q208.15 8.39 208.50 8.46L208.50 8.46L208.50 8.46Q208.39 10.55 208.39 12.02L208.39 12.02L208.39 12.02Q208.39 12.10 208.62 12.11L208.62 12.11L208.62 12.11Q208.84 12.12 209.13 12.06L209.13 12.06L209.13 12.06Q209.86 11.91 209.86 11.62L209.86 11.62L209.86 11.62Q209.86 9.90 210.06 6.45L210.06 6.45L210.06 6.45Q210.26 3.00 210.26 1.27L210.26 1.27L210.26 1.27Q210.26 1.18 209.98 1.18L209.98 1.18ZM222.79 5.50L222.79 5.50Q223.24 4.74 223.45 3.53L223.45 3.53L223.45 3.53Q223.69 2.15 223.19 1.57L223.19 1.57L223.19 1.57Q222.90 1.22 222.15 1.27L222.15 1.27L222.15 1.27Q221.21 1.33 220.32 1.85L220.32 1.85L220.32 1.85Q219.06 2.59 218.46 4.34L218.46 4.34L218.46 4.34Q217.84 6.10 218.46 7.18L218.46 7.18L218.46 7.18Q218.75 7.68 220.12 8.17L220.12 8.17L220.12 8.17Q220.69 8.37 220.90 8.48L220.90 8.48L220.90 8.48Q221.33 8.74 221.42 9.11L221.42 9.11L221.42 9.11Q221.52 9.50 221.18 10.17L221.18 10.17L221.18 10.17Q221.00 10.51 220.72 10.76L220.72 10.76L220.72 10.76Q220.60 10.87 220.45 10.97L220.45 10.97L220.45 10.97Q220.37 11.02 220.35 11.03L220.35 11.03L220.35 11.03Q220.29 11.07 220.23 11.09L220.23 11.09L220.23 11.09Q220.32 11.05 220.20 11.10L220.20 11.10L220.20 11.10Q220.21 11.10 220.27 11.09L220.27 11.09L220.27 11.09Q220.23 11.09 220.18 11.09L220.18 11.09L220.18 11.09Q220.17 11.10 220.08 11.09L220.08 11.09L220.08 11.09Q220.03 11.09 219.88 11.05L219.88 11.05L219.88 11.05Q219.52 10.97 219.22 10.64L219.22 10.64L219.22 10.64Q219.00 10.39 218.91 9.93L218.91 9.93L218.91 9.93Q218.81 9.44 219.04 9.28L219.04 9.28L219.04 9.28Q219.24 9.13 219.21 9.06L219.21 9.06L219.21 9.06Q219.19 8.97 218.96 8.96L218.96 8.96L218.96 8.96Q218.33 8.95 217.92 9.24L217.92 9.24L217.92 9.24Q217.53 9.53 217.46 9.86L217.46 9.86L217.46 9.86Q217.38 10.20 217.53 10.62L217.53 10.62L217.53 10.62Q217.81 11.36 218.67 11.61L218.67 11.61L218.67 11.61Q219.56 11.87 220.83 11.37L220.83 11.37L220.83 11.37Q221.85 10.96 222.41 10.24L222.41 10.24L222.41 10.24Q222.79 9.76 222.88 9.24L222.88 9.24L222.88 9.24Q222.98 8.62 222.60 8.23L222.60 8.23L222.60 8.23Q222.33 7.96 221.77 7.75L221.77 7.75L221.77 7.75Q221.62 7.70 221.31 7.59L221.31 7.59L221.31 7.59Q221.01 7.50 220.88 7.44L220.88 7.44L220.88 7.44Q220.35 7.23 220.07 6.97L220.07 6.97L220.07 6.97Q219.77 6.69 219.67 5.96L219.67 5.96L219.67 5.96Q219.47 4.53 220.42 2.97L220.42 2.97L220.42 2.97Q220.83 2.29 221.34 1.95L221.34 1.95L221.34 1.95Q221.39 1.91 221.48 1.86L221.48 1.86L221.48 1.86Q221.48 1.86 221.53 1.84L221.53 1.84L221.53 1.84Q221.52 1.84 221.56 1.83L221.56 1.83L221.56 1.83Q221.53 1.84 221.57 1.83L221.57 1.83L221.57 1.83Q221.50 1.85 221.42 1.85L221.42 1.85L221.42 1.85Q221.44 1.85 221.43 1.85L221.43 1.85L221.45 1.85L221.45 1.85Q221.50 1.86 221.59 1.89L221.59 1.89L221.59 1.89Q221.60 1.89 221.70 1.96L221.70 1.96L221.70 1.96Q221.76 2.01 221.81 2.06L221.81 2.06L221.81 2.06Q221.92 2.20 221.99 2.45L221.99 2.45L221.99 2.45Q222.11 2.84 222.04 3.49L222.04 3.49L222.04 3.49Q221.92 4.81 221.35 5.76L221.35 5.76L221.35 5.76Q221.26 5.90 221.57 5.91L221.57 5.91L221.57 5.91Q221.76 5.92 221.93 5.89L221.93 5.89L221.93 5.89Q222.63 5.76 222.79 5.50L222.79 5.50ZM231.43 2.53L231.43 2.53Q231.18 3.62 230.57 6.79L230.57 6.79L230.57 6.79Q230.33 8.03 230.14 8.93L230.14 8.93L230.14 8.93Q229.75 10.78 229.74 10.91L229.74 10.91L229.74 10.91Q229.74 10.99 229.97 11.00L229.97 11.00L229.97 11.00Q230.19 11.01 230.47 10.96L230.47 10.96L230.47 10.96Q231.20 10.81 231.21 10.52L231.21 10.52L231.21 10.52Q231.21 10.23 231.37 9.62L231.37 9.62L231.37 9.62Q231.44 9.32 231.60 8.57L231.60 8.57L231.60 8.57Q231.77 7.77 232.03 6.44L232.03 6.44L232.03 6.44Q232.63 3.36 232.87 2.27L232.87 2.27L232.87 2.27Q232.93 2.02 232.29 2.13L232.29 2.13L232.29 2.13Q231.98 2.19 231.73 2.31L231.73 2.31L231.73 2.31Q231.45 2.44 231.43 2.53L231.43 2.53ZM242.38 7.89L242.38 7.89Q242.27 7.90 241.37 7.84L241.37 7.84L241.37 7.84Q241.78 6.63 242.24 5.57L242.24 5.57L242.24 5.57Q242.40 5.18 242.95 3.95L242.95 3.95L242.95 3.95Q242.93 4.61 242.74 7.85L242.74 7.85L242.74 7.85Q242.57 7.87 242.38 7.89L242.38 7.89ZM244.19 1.18L244.19 1.18Q244.00 1.09 243.62 1.16L243.62 1.16L243.62 1.16Q242.98 1.27 242.76 1.55L242.76 1.55L242.76 1.55Q242.57 1.80 241.79 3.58L241.79 3.58L241.79 3.58Q241.65 3.90 241.29 4.70L241.29 4.70L241.29 4.70Q240.97 5.42 240.80 5.83L240.80 5.83L240.80 5.83Q240.38 6.79 240.00 7.86L240.00 7.86L240.00 7.86Q239.08 7.97 238.43 8.37L238.43 8.37L238.43 8.37Q238.25 8.48 238.28 8.58L238.28 8.58L238.28 8.58Q238.31 8.67 238.51 8.68L238.51 8.68L238.51 8.68Q239.03 8.70 239.50 8.43L239.50 8.43L239.50 8.43Q239.65 8.41 239.70 8.41L239.70 8.41L239.70 8.41Q239.76 8.41 239.82 8.41L239.82 8.41L239.82 8.41Q239.50 9.39 239.18 10.53L239.18 10.53L239.18 10.53Q239.11 10.79 239.76 10.67L239.76 10.67L239.76 10.67Q240.06 10.62 240.32 10.49L240.32 10.49L240.32 10.49Q240.59 10.37 240.62 10.27L240.62 10.27L240.62 10.27Q240.88 9.32 241.16 8.48L241.16 8.48L241.16 8.48Q241.45 8.50 241.65 8.47L241.65 8.47L241.65 8.47Q242.35 8.39 242.71 8.46L242.71 8.46L242.71 8.46Q242.60 10.55 242.60 12.02L242.60 12.02L242.60 12.02Q242.60 12.10 242.83 12.11L242.83 12.11L242.83 12.11Q243.04 12.12 243.33 12.06L243.33 12.06L243.33 12.06Q244.06 11.91 244.06 11.62L244.06 11.62L244.06 11.62Q244.06 9.90 244.27 6.45L244.27 6.45L244.27 6.45Q244.47 3.00 244.47 1.27L244.47 1.27L244.47 1.27Q244.47 1.18 244.19 1.18L244.19 1.18ZM257.84 0.74L257.84 0.74Q257.54 0.79 257.28 0.91L257.28 0.91L257.28 0.91Q257.01 1.04 256.98 1.13L256.98 1.13L256.98 1.13Q256.10 3.96 255.48 7.39L255.48 7.39L255.48 7.39Q255.40 6.88 255.28 6.21L255.28 6.21L255.28 6.21Q254.99 4.44 254.94 4.05L254.94 4.05L254.94 4.05Q254.79 2.77 254.60 2.37L254.60 2.37L254.60 2.37Q254.60 2.37 254.58 2.35L254.58 2.35L254.59 2.34L254.59 2.34Q254.59 2.34 254.59 2.33L254.59 2.33L254.59 2.33Q254.63 2.08 254.00 2.20L254.00 2.20L254.00 2.20Q253.70 2.26 253.45 2.37L253.45 2.37L253.45 2.37Q253.16 2.51 253.15 2.60L253.15 2.60L253.15 2.60Q252.96 3.71 252.32 6.73L252.32 6.73L252.32 6.73Q251.77 9.34 251.57 10.89L251.57 10.89L251.57 10.89Q251.56 11.01 251.94 10.98L251.94 10.98L251.94 10.98Q252.19 10.96 252.36 10.91L252.36 10.91L252.36 10.91Q253.00 10.74 253.03 10.50L253.03 10.50L253.03 10.50Q253.23 8.97 253.78 6.38L253.78 6.38L253.78 6.38Q253.81 6.54 253.82 6.61L253.82 6.61L253.82 6.61Q254.04 7.90 254.21 8.95L254.21 8.95L254.21 8.95Q254.47 10.45 254.70 11.09L254.70 11.09L254.70 11.09Q254.75 11.24 255.10 11.21L255.10 11.21L255.10 11.21Q255.41 11.18 255.75 11.05L255.75 11.05L255.75 11.05Q256.33 10.89 256.37 10.65L256.37 10.65L256.37 10.65Q257.14 5.00 258.43 0.87L258.43 0.87L258.43 0.87Q258.51 0.62 257.84 0.74L257.84 0.74ZM279.54 1.54L279.54 1.54Q279.11 0.91 277.93 1.20L277.93 1.20L277.93 1.20Q276.97 1.43 276.33 2.14L276.33 2.14L276.33 2.14Q275.32 3.26 274.89 5.40L274.89 5.40L274.89 5.40Q274.59 6.86 274.50 8.67L274.50 8.67L274.50 8.67Q274.48 9.98 274.62 10.47L274.62 10.47L274.62 10.47Q274.89 11.44 275.98 11.50L275.98 11.50L275.98 11.50Q276.60 11.53 277.19 11.27L277.19 11.27L277.19 11.27Q277.79 10.99 278.15 10.51L278.15 10.51L278.15 10.51Q278.53 10.02 278.87 8.89L278.87 8.89L278.87 8.89Q278.94 8.64 278.28 8.76L278.28 8.76L278.28 8.76Q277.98 8.81 277.73 8.93L277.73 8.93L277.73 8.93Q277.46 9.06 277.43 9.15L277.43 9.15L277.43 9.15Q277.18 9.99 276.91 10.48L276.91 10.48L276.91 10.48Q276.79 10.68 276.66 10.83L276.66 10.83L276.66 10.83Q276.10 10.58 275.97 9.66L275.97 9.66L275.97 9.66Q275.95 9.42 275.96 8.20L275.96 8.20L275.96 8.20Q276.06 6.41 276.37 4.92L276.37 4.92L276.37 4.92Q276.83 2.75 277.87 1.80L277.87 1.80L277.87 1.80Q277.88 1.79 277.91 1.76L277.91 1.76L277.91 1.76Q278.27 2.01 278.37 2.75L278.37 2.75L278.37 2.75Q278.44 3.36 278.23 4.29L278.23 4.29L278.23 4.29Q277.89 5.76 277.89 5.80L277.89 5.80L277.89 5.80Q277.87 5.92 278.25 5.89L278.25 5.89L278.25 5.89Q278.51 5.87 278.67 5.82L278.67 5.82L278.67 5.82Q279.31 5.65 279.35 5.41L279.35 5.41L279.35 5.41Q279.40 5.07 279.56 4.41L279.56 4.41L279.56 4.41Q279.72 3.74 279.77 3.40L279.77 3.40L279.77 3.40Q279.97 2.17 279.54 1.54L279.54 1.54ZM290.89 2.21L290.89 2.21Q290.25 2.38 290.22 2.63L290.22 2.63L290.22 2.63Q290.17 3.01 290.01 4.51L290.01 4.51L290.01 4.51Q289.88 5.69 289.75 6.41L289.75 6.41L289.75 6.41Q289.34 8.57 288.24 9.83L288.24 9.83L288.24 9.83Q288.09 10.00 287.98 10.12L287.98 10.12L287.98 10.12Q287.72 9.61 287.68 8.40L287.68 8.40L287.68 8.40Q287.63 6.90 288.55 4.58L288.55 4.58L288.55 4.58Q289.24 2.88 289.40 2.40L289.40 2.40L289.40 2.40Q289.49 2.15 288.82 2.26L288.82 2.26L288.82 2.26Q288.05 2.41 287.96 2.66L287.96 2.66L287.96 2.66Q287.79 3.12 287.24 4.53L287.24 4.53L287.24 4.53Q286.77 5.71 286.56 6.43L286.56 6.43L286.56 6.43Q285.90 8.66 286.47 10.36L286.47 10.36L286.47 10.36Q286.57 10.68 286.77 10.83L286.77 10.83L286.77 10.83Q287 11.03 287.64 10.92L287.64 10.92L287.64 10.92Q288.65 10.73 289.56 9.71L289.56 9.71L289.56 9.71Q290.73 8.41 291.16 6.34L291.16 6.34L291.16 6.34Q291.32 5.55 291.46 4.29L291.46 4.29L291.46 4.29Q291.63 2.58 291.68 2.24L291.68 2.24L291.68 2.24Q291.70 2.11 291.31 2.14L291.31 2.14L291.31 2.14Q291.06 2.16 290.89 2.21L290.89 2.21ZM299.58 2.53L299.58 2.53Q299.34 3.62 298.72 6.79L298.72 6.79L298.72 6.79Q298.48 8.03 298.29 8.93L298.29 8.93L298.29 8.93Q297.90 10.78 297.90 10.91L297.90 10.91L297.90 10.91Q297.90 10.99 298.12 11.00L298.12 11.00L298.12 11.00Q298.34 11.01 298.62 10.96L298.62 10.96L298.62 10.96Q299.35 10.81 299.36 10.52L299.36 10.52L299.36 10.52Q299.37 10.23 299.52 9.62L299.52 9.62L299.52 9.62Q299.60 9.32 299.76 8.57L299.76 8.57L299.76 8.57Q299.93 7.77 300.19 6.44L300.19 6.44L300.19 6.44Q300.78 3.36 301.03 2.27L301.03 2.27L301.03 2.27Q301.08 2.02 300.44 2.13L300.44 2.13L300.44 2.13Q300.14 2.19 299.89 2.31L299.89 2.31L299.89 2.31Q299.61 2.44 299.58 2.53L299.58 2.53ZM312.79 5.50L312.79 5.50Q313.24 4.74 313.45 3.53L313.45 3.53L313.45 3.53Q313.69 2.15 313.19 1.57L313.19 1.57L313.19 1.57Q312.90 1.22 312.15 1.27L312.15 1.27L312.15 1.27Q311.21 1.33 310.32 1.85L310.32 1.85L310.32 1.85Q309.07 2.59 308.46 4.34L308.46 4.34L308.46 4.34Q307.84 6.10 308.46 7.18L308.46 7.18L308.46 7.18Q308.75 7.68 310.13 8.17L310.13 8.17L310.13 8.17Q310.69 8.37 310.90 8.48L310.90 8.48L310.90 8.48Q311.34 8.74 311.42 9.11L311.42 9.11L311.42 9.11Q311.52 9.50 311.18 10.17L311.18 10.17L311.18 10.17Q311.00 10.51 310.72 10.76L310.72 10.76L310.72 10.76Q310.60 10.87 310.45 10.97L310.45 10.97L310.45 10.97Q310.37 11.02 310.35 11.03L310.35 11.03L310.35 11.03Q310.29 11.07 310.23 11.09L310.23 11.09L310.23 11.09Q310.32 11.05 310.20 11.10L310.20 11.10L310.20 11.10Q310.21 11.10 310.27 11.09L310.27 11.09L310.27 11.09Q310.23 11.09 310.18 11.09L310.18 11.09L310.18 11.09Q310.17 11.10 310.08 11.09L310.08 11.09L310.08 11.09Q310.03 11.09 309.88 11.05L309.88 11.05L309.88 11.05Q309.52 10.97 309.22 10.64L309.22 10.64L309.22 10.64Q309.00 10.39 308.92 9.93L308.92 9.93L308.92 9.93Q308.81 9.44 309.04 9.28L309.04 9.28L309.04 9.28Q309.24 9.13 309.22 9.06L309.22 9.06L309.22 9.06Q309.19 8.97 308.96 8.96L308.96 8.96L308.96 8.96Q308.33 8.95 307.92 9.24L307.92 9.24L307.92 9.24Q307.54 9.53 307.46 9.86L307.46 9.86L307.46 9.86Q307.38 10.20 307.54 10.62L307.54 10.62L307.54 10.62Q307.81 11.36 308.68 11.61L308.68 11.61L308.68 11.61Q309.57 11.87 310.84 11.37L310.84 11.37L310.84 11.37Q311.85 10.96 312.42 10.24L312.42 10.24L312.42 10.24Q312.79 9.76 312.88 9.24L312.88 9.24L312.88 9.24Q312.98 8.62 312.60 8.23L312.60 8.23L312.60 8.23Q312.33 7.96 311.77 7.75L311.77 7.75L311.77 7.75Q311.62 7.70 311.31 7.59L311.31 7.59L311.31 7.59Q311.01 7.50 310.88 7.44L310.88 7.44L310.88 7.44Q310.35 7.23 310.07 6.97L310.07 6.97L310.07 6.97Q309.77 6.69 309.67 5.96L309.67 5.96L309.67 5.96Q309.47 4.53 310.42 2.97L310.42 2.97L310.42 2.97Q310.84 2.29 311.34 1.95L311.34 1.95L311.34 1.95Q311.39 1.91 311.49 1.86L311.49 1.86L311.49 1.86Q311.48 1.86 311.53 1.84L311.53 1.84L311.53 1.84Q311.52 1.84 311.56 1.83L311.56 1.83L311.56 1.83Q311.53 1.84 311.58 1.83L311.58 1.83L311.58 1.83Q311.50 1.85 311.42 1.85L311.42 1.85L311.42 1.85Q311.45 1.85 311.43 1.85L311.43 1.85L311.45 1.85L311.45 1.85Q311.51 1.86 311.59 1.89L311.59 1.89L311.59 1.89Q311.60 1.89 311.70 1.96L311.70 1.96L311.70 1.96Q311.77 2.01 311.81 2.06L311.81 2.06L311.81 2.06Q311.92 2.20 311.99 2.45L311.99 2.45L311.99 2.45Q312.11 2.84 312.05 3.49L312.05 3.49L312.05 3.49Q311.92 4.81 311.35 5.76L311.35 5.76L311.35 5.76Q311.26 5.90 311.57 5.91L311.57 5.91L311.57 5.91Q311.77 5.92 311.93 5.89L311.93 5.89L311.93 5.89Q312.63 5.76 312.79 5.50L312.79 5.50ZM321.43 2.53L321.43 2.53Q321.19 3.62 320.57 6.79L320.57 6.79L320.57 6.79Q320.33 8.03 320.14 8.93L320.14 8.93L320.14 8.93Q319.75 10.78 319.74 10.91L319.74 10.91L319.74 10.91Q319.74 10.99 319.97 11.00L319.97 11.00L319.97 11.00Q320.19 11.01 320.47 10.96L320.47 10.96L320.47 10.96Q321.20 10.81 321.21 10.52L321.21 10.52L321.21 10.52Q321.21 10.23 321.37 9.62L321.37 9.62L321.37 9.62Q321.45 9.32 321.60 8.57L321.60 8.57L321.60 8.57Q321.77 7.77 322.03 6.44L322.03 6.44L322.03 6.44Q322.63 3.36 322.88 2.27L322.88 2.27L322.88 2.27Q322.93 2.02 322.29 2.13L322.29 2.13L322.29 2.13Q321.99 2.19 321.73 2.31L321.73 2.31L321.73 2.31Q321.45 2.44 321.43 2.53L321.43 2.53ZM335.49 0.74L335.49 0.74Q335.18 0.79 334.93 0.91L334.93 0.91L334.93 0.91Q334.65 1.04 334.63 1.13L334.63 1.13L334.63 1.13Q333.74 3.96 333.12 7.39L333.12 7.39L333.12 7.39Q333.04 6.88 332.92 6.21L332.92 6.21L332.92 6.21Q332.63 4.44 332.58 4.05L332.58 4.05L332.58 4.05Q332.43 2.77 332.24 2.37L332.24 2.37L332.24 2.37Q332.24 2.37 332.23 2.35L332.23 2.35L332.23 2.34L332.23 2.34Q332.23 2.34 332.23 2.33L332.23 2.33L332.23 2.33Q332.27 2.08 331.65 2.20L331.65 2.20L331.65 2.20Q331.34 2.26 331.09 2.37L331.09 2.37L331.09 2.37Q330.80 2.51 330.79 2.60L330.79 2.60L330.79 2.60Q330.61 3.71 329.96 6.73L329.96 6.73L329.96 6.73Q329.42 9.34 329.21 10.89L329.21 10.89L329.21 10.89Q329.20 11.01 329.58 10.98L329.58 10.98L329.58 10.98Q329.83 10.96 330.00 10.91L330.00 10.91L330.00 10.91Q330.65 10.74 330.67 10.50L330.67 10.50L330.67 10.50Q330.87 8.97 331.43 6.38L331.43 6.38L331.43 6.38Q331.45 6.54 331.46 6.61L331.46 6.61L331.46 6.61Q331.68 7.90 331.86 8.95L331.86 8.95L331.86 8.95Q332.12 10.45 332.34 11.09L332.34 11.09L332.34 11.09Q332.40 11.24 332.74 11.21L332.74 11.21L332.74 11.21Q333.05 11.18 333.39 11.05L333.39 11.05L333.39 11.05Q333.98 10.89 334.01 10.65L334.01 10.65L334.01 10.65Q334.78 5.00 336.07 0.87L336.07 0.87L336.07 0.87Q336.15 0.62 335.49 0.74L335.49 0.74ZM346.71 1.42L346.71 1.42Q345.99 1.19 344.81 1.57L344.81 1.57L344.81 1.57Q343.30 2.06 342.74 3.77L342.74 3.77L342.74 3.77Q342.39 4.83 342.57 6.11L342.57 6.11L342.57 6.11Q342.66 6.76 342.92 7.16L342.92 7.16L342.92 7.16Q342.51 7.38 342.21 7.70L342.21 7.70L342.21 7.70Q341.22 8.80 341.33 10.01L341.33 10.01L341.33 10.01Q341.39 10.70 341.87 11.11L341.87 11.11L341.87 11.11Q342.27 11.44 343.10 11.42L343.10 11.42L343.10 11.42Q343.93 11.39 344.63 10.95L344.63 10.95L344.63 10.95Q345.39 10.49 345.69 9.76L345.69 9.76L345.69 9.76Q345.75 9.61 345.47 9.60L345.47 9.60L345.47 9.60Q345.30 9.59 345.11 9.63L345.11 9.63L345.11 9.63Q344.35 9.76 344.25 10.02L344.25 10.02L344.25 10.02Q344.05 10.51 343.70 10.80L343.70 10.80L343.70 10.80Q343.69 10.81 343.68 10.82L343.68 10.82L343.68 10.82Q343.63 10.81 343.62 10.81L343.62 10.81L343.62 10.81Q343.55 10.79 343.47 10.75L343.47 10.75L343.47 10.75Q343.31 10.68 343.15 10.52L343.15 10.52L343.15 10.52Q342.86 10.23 342.79 9.63L342.79 9.63L342.79 9.63Q342.69 8.83 343.32 7.86L343.32 7.86L343.32 7.86Q343.40 7.74 343.51 7.62L343.51 7.62L343.51 7.62Q343.72 7.70 343.99 7.72L343.99 7.72L343.99 7.72Q344.39 7.74 344.89 7.51L344.89 7.51L344.89 7.51Q345.30 7.32 345.15 7.18L345.15 7.18L345.15 7.18Q344.87 6.90 344.44 6.84L344.44 6.84L344.44 6.84Q344.40 6.79 344.37 6.75L344.37 6.75L344.37 6.75Q344.16 6.45 344.05 5.89L344.05 5.89L344.05 5.89Q343.86 4.89 344.05 4.00L344.05 4.00L344.05 4.00Q344.31 2.70 345.08 2.04L345.08 2.04L345.08 2.04Q345.13 2.00 345.23 1.93L345.23 1.93L345.23 1.93Q345.24 1.93 345.24 1.93L345.24 1.93L345.24 1.93Q345.37 1.94 345.34 1.93L345.34 1.93L345.34 1.93Q345.93 2.02 345.81 2.62L345.81 2.62L345.81 2.62Q345.76 2.86 346.39 2.75L346.39 2.75L346.39 2.75Q346.70 2.69 346.95 2.58L346.95 2.58L346.95 2.58Q347.23 2.45 347.25 2.36L347.25 2.36L347.25 2.36Q347.39 1.63 346.71 1.42L346.71 1.42Z"></path></g></svg>