<svg data-v-423bf9ae="" xmlns="http://www.w3.org/2000/svg" viewBox="0 0 517.706698980277 60" class="font"><!----><!----><!----><g data-v-423bf9ae="" id="feae025c-3765-437e-850b-d0024d5840af" fill="white" transform="matrix(6.361596417460351,0,0,6.361596417460351,-2.2901809238509827,-21.436386494513656)"><path d="M1.47 3.66L0.36 4.59L0.43 4.82L0.43 4.82Q1.13 4.09 0.94 7.44L0.94 7.44L0.36 8.11L0.96 8.55L0.93 11.57L0.93 11.57Q0.91 12.69 1.89 12.74L1.89 12.74L2.78 12.04L2.65 11.81L2.65 11.81Q1.90 12.51 2.04 9.01L2.04 9.01L2.04 9.01Q3.28 9.39 4.06 8.87L4.06 8.87L4.06 8.87Q4.84 8.34 5.29 7.91L5.29 7.91L5.29 7.91Q5.75 7.47 5.93 6.67L5.93 6.67L5.93 6.67Q6.12 5.86 5.51 4.89L5.51 4.89L5.51 4.89Q4.89 3.92 3.85 3.50L3.85 3.50L2.04 4.87L2.04 4.87Q2.03 4.12 1.47 3.66L1.47 3.66ZM3.30 4.48L3.30 4.48Q4.16 4.75 4.63 5.62L4.63 5.62L4.63 5.62Q5.10 6.49 4.99 7.33L4.99 7.33L4.99 7.33Q4.87 8.18 3.75 8.33L3.75 8.33L3.75 8.33Q2.62 8.47 2.02 7.66L2.02 7.66L2.05 5.44L3.30 4.48ZM8.26 6.54L8.26 6.54L8.26 6.54Q7.24 6.56 6.40 7.23L6.40 7.23L6.40 7.23Q5.55 7.90 5.97 8.74L5.97 8.74L7.09 8.07L7.09 8.07Q6.87 6.90 8.30 7.03L8.30 7.03L8.30 7.03Q9.72 7.15 9.54 8.89L9.54 8.89L9.54 8.89Q8.43 8.39 7.55 8.61L7.55 8.61L7.55 8.61Q6.67 8.82 5.93 9.71L5.93 9.71L5.93 9.71Q5.35 10.58 5.56 11.18L5.56 11.18L5.56 11.18Q5.78 11.79 6.26 12.23L6.26 12.23L6.26 12.23Q6.74 12.67 7.34 12.71L7.34 12.71L7.34 12.71Q7.94 12.76 8.35 12.48L8.35 12.48L8.35 12.48Q8.76 12.20 9.55 11.49L9.55 11.49L9.55 11.49Q9.62 12.36 10.11 12.76L10.11 12.76L11.22 11.80L11.14 11.64L11.14 11.64Q10.57 12.10 10.51 10.58L10.51 10.58L10.51 8.14L10.51 8.14Q10.48 7.23 9.88 6.88L9.88 6.88L9.88 6.88Q9.28 6.53 8.26 6.54ZM9.24 9.84L9.24 9.84L9.51 9.47L9.52 11.08L9.52 11.08Q8.65 11.95 8.03 11.90L8.03 11.90L8.03 11.90Q7.40 11.85 6.98 11.48L6.98 11.48L6.98 11.48Q6.56 11.12 6.36 10.64L6.36 10.64L6.36 10.64Q6.17 10.17 6.44 9.71L6.44 9.71L6.44 9.71Q6.71 9.26 7.49 9.19L7.49 9.19L7.49 9.19Q8.28 9.11 9.24 9.84ZM13.01 6.39L11.66 7.22L11.75 7.33L11.75 7.33Q12.38 6.92 12.37 8.52L12.37 8.52L12.37 8.52Q12.30 11.43 12.39 11.88L12.39 11.88L12.39 11.88Q12.48 12.34 13.23 12.70L13.23 12.70L14.23 12.00L14.17 11.86L14.17 11.86Q13.62 12.18 13.49 11.16L13.49 11.16L13.49 11.16Q13.37 10.14 13.45 8.24L13.45 8.24L13.45 8.24Q14.76 6.81 15.72 7.10L15.72 7.10L15.72 7.10Q16.68 7.39 16.54 9.29L16.54 9.29L16.54 9.29Q16.50 11.34 16.55 11.83L16.55 11.83L16.55 11.83Q16.60 12.32 17.19 12.68L17.19 12.68L18.23 11.95L18.14 11.79L18.14 11.79Q17.66 12.04 17.60 11.10L17.60 11.10L17.60 11.10Q17.53 10.17 17.60 8.73L17.60 8.73L17.60 8.73Q17.64 7.85 17.38 7.26L17.38 7.26L17.38 7.26Q17.11 6.68 16.43 6.44L16.43 6.44L16.43 6.44Q15.76 6.20 14.94 6.55L14.94 6.55L14.94 6.55Q14.13 6.90 13.47 7.59L13.47 7.59L13.47 7.59Q13.54 6.75 13.01 6.39L13.01 6.39ZM19.56 8.03L18.61 9.11L18.68 9.21L18.68 9.21Q18.90 8.98 23.00 9.01L23.00 9.01L23.88 7.90L23.73 7.84L23.73 7.84Q23.55 8.08 19.56 8.03L19.56 8.03ZM28.15 3.37L28.15 3.37L28.15 3.37Q27.80 3.37 27.59 3.53L27.59 3.53L27.59 3.53Q27.37 3.68 26.58 4.68L26.58 4.68L26.87 4.89L26.87 4.89Q27.32 4.20 27.63 4.22L27.63 4.22L27.63 4.22Q27.93 4.25 28.09 5.20L28.09 5.20L26.42 8.38L25.79 8.38L24.74 9.40L24.83 9.54L24.83 9.54Q25.54 9.38 26.07 9.43L26.07 9.43L26.07 9.43Q25.42 10.79 25.12 11.34L25.12 11.34L25.12 11.34Q24.82 11.88 24.32 12.50L24.32 12.50L24.36 12.69L26.57 12.68L27.25 11.73L25.46 11.72L25.46 11.72Q25.96 11.47 26.89 9.45L26.89 9.45L29.02 9.39L29.40 9.08L29.40 9.08Q30.30 11.62 30.64 12.11L30.64 12.11L30.64 12.11Q30.98 12.61 31.39 12.76L31.39 12.76L32.09 11.93L32.09 11.93Q31.22 11.35 30.07 7.63L30.07 7.63L30.07 7.63Q28.93 3.91 28.71 3.64L28.71 3.64L28.71 3.64Q28.49 3.36 28.15 3.37ZM28.42 5.99L29.19 8.44L27.24 8.43L28.42 5.99ZM35.12 6.53L35.12 6.53L35.12 6.53Q34.46 6.63 34.01 6.92L34.01 6.92L34.01 6.92Q33.56 7.21 33.20 7.57L33.20 7.57L33.20 7.57Q32.84 7.94 32.74 8.43L32.74 8.43L32.74 8.43Q32.65 8.93 33.08 9.37L33.08 9.37L33.08 9.37Q33.50 9.80 34.56 10.02L34.56 10.02L34.56 10.02Q35.61 10.24 36.01 10.47L36.01 10.47L36.01 10.47Q36.41 10.70 36.50 11.11L36.50 11.11L36.50 11.11Q36.59 11.53 36.29 11.79L36.29 11.79L36.29 11.79Q35.99 12.05 35.21 11.93L35.21 11.93L35.21 11.93Q34.43 11.81 34.03 11.55L34.03 11.55L34.03 11.55Q33.62 11.29 33.26 10.89L33.26 10.89L33.26 10.89Q32.90 10.50 33.17 10.34L33.17 10.34L33.08 10.25L32.31 10.84L32.31 10.84Q32.19 11.20 32.58 11.70L32.58 11.70L32.58 11.70Q32.98 12.21 33.56 12.52L33.56 12.52L33.56 12.52Q34.14 12.82 34.86 12.80L34.86 12.80L34.86 12.80Q35.59 12.78 36.19 12.34L36.19 12.34L36.19 12.34Q36.79 11.90 37.09 11.35L37.09 11.35L37.09 11.35Q37.39 10.81 37.30 10.36L37.30 10.36L37.30 10.36Q37.21 9.91 36.79 9.56L36.79 9.56L36.79 9.56Q36.38 9.20 35.08 8.95L35.08 8.95L35.08 8.95Q33.77 8.70 33.71 8.09L33.71 8.09L33.71 8.09Q33.66 7.48 34.25 7.31L34.25 7.31L34.25 7.31Q34.85 7.14 35.56 7.45L35.56 7.45L35.56 7.45Q36.28 7.76 36.00 8.13L36.00 8.13L36.09 8.24L36.89 7.40L36.89 7.40Q36.79 6.93 36.29 6.68L36.29 6.68L36.29 6.68Q35.79 6.43 35.12 6.53ZM38.86 3.68L38.13 4.38L38.13 4.38Q38.68 4.68 38.80 5.35L38.80 5.35L38.80 5.35Q39.81 4.81 39.58 4.32L39.58 4.32L39.58 4.32Q39.36 3.83 38.86 3.68L38.86 3.68ZM38.29 7.41L38.29 7.41Q38.62 7.39 38.53 9.19L38.53 9.19L38.53 9.19Q38.50 11.33 38.55 11.84L38.55 11.84L38.55 11.84Q38.60 12.35 39.16 12.68L39.16 12.68L39.96 11.84L39.96 11.84Q39.51 11.73 39.57 10.31L39.57 10.31L39.57 10.31Q39.59 7.65 39.57 7.25L39.57 7.25L39.57 7.25Q39.55 6.85 39.20 6.45L39.20 6.45L38.18 7.22L38.29 7.41ZM43.45 6.54L43.45 6.54L43.45 6.54Q42.43 6.56 41.59 7.23L41.59 7.23L41.59 7.23Q40.74 7.90 41.17 8.74L41.17 8.74L42.28 8.07L42.28 8.07Q42.06 6.90 43.49 7.03L43.49 7.03L43.49 7.03Q44.91 7.15 44.73 8.89L44.73 8.89L44.73 8.89Q43.62 8.39 42.74 8.61L42.74 8.61L42.74 8.61Q41.86 8.82 41.13 9.71L41.13 9.71L41.13 9.71Q40.54 10.58 40.75 11.18L40.75 11.18L40.75 11.18Q40.97 11.79 41.45 12.23L41.45 12.23L41.45 12.23Q41.93 12.67 42.53 12.71L42.53 12.71L42.53 12.71Q43.13 12.76 43.54 12.48L43.54 12.48L43.54 12.48Q43.95 12.20 44.74 11.49L44.74 11.49L44.74 11.49Q44.81 12.36 45.30 12.76L45.30 12.76L46.42 11.80L46.33 11.64L46.33 11.64Q45.76 12.10 45.70 10.58L45.70 10.58L45.71 8.14L45.71 8.14Q45.67 7.23 45.07 6.88L45.07 6.88L45.07 6.88Q44.47 6.53 43.45 6.54ZM44.43 9.84L44.43 9.84L44.70 9.47L44.71 11.08L44.71 11.08Q43.84 11.95 43.22 11.90L43.22 11.90L43.22 11.90Q42.59 11.85 42.17 11.48L42.17 11.48L42.17 11.48Q41.75 11.12 41.56 10.64L41.56 10.64L41.56 10.64Q41.36 10.17 41.63 9.71L41.63 9.71L41.63 9.71Q41.90 9.26 42.68 9.19L42.68 9.19L42.68 9.19Q43.47 9.11 44.43 9.84ZM48.20 6.39L46.85 7.22L46.94 7.33L46.94 7.33Q47.57 6.92 47.56 8.52L47.56 8.52L47.56 8.52Q47.49 11.43 47.58 11.88L47.58 11.88L47.58 11.88Q47.67 12.34 48.42 12.70L48.42 12.70L49.42 12.00L49.36 11.86L49.36 11.86Q48.81 12.18 48.69 11.16L48.69 11.16L48.69 11.16Q48.56 10.14 48.64 8.24L48.64 8.24L48.64 8.24Q49.95 6.81 50.91 7.10L50.91 7.10L50.91 7.10Q51.87 7.39 51.73 9.29L51.73 9.29L51.73 9.29Q51.69 11.34 51.74 11.83L51.74 11.83L51.74 11.83Q51.79 12.32 52.38 12.68L52.38 12.68L53.42 11.95L53.33 11.79L53.33 11.79Q52.86 12.04 52.79 11.10L52.79 11.10L52.79 11.10Q52.72 10.17 52.79 8.73L52.79 8.73L52.79 8.73Q52.83 7.85 52.57 7.26L52.57 7.26L52.57 7.26Q52.30 6.68 51.63 6.44L51.63 6.44L51.63 6.44Q50.95 6.20 50.13 6.55L50.13 6.55L50.13 6.55Q49.32 6.90 48.67 7.59L48.67 7.59L48.67 7.59Q48.73 6.75 48.20 6.39L48.20 6.39ZM58.27 3.66L57.16 4.59L57.23 4.82L57.23 4.82Q57.93 4.09 57.74 7.44L57.74 7.44L57.16 8.11L57.76 8.55L57.73 11.57L57.73 11.57Q57.71 12.69 58.69 12.74L58.69 12.74L59.58 12.04L59.45 11.81L59.45 11.81Q58.70 12.51 58.84 9.01L58.84 9.01L58.84 9.01Q60.08 9.39 60.86 8.87L60.86 8.87L60.86 8.87Q61.64 8.34 62.09 7.91L62.09 7.91L62.09 7.91Q62.55 7.47 62.73 6.67L62.73 6.67L62.73 6.67Q62.92 5.86 62.31 4.89L62.31 4.89L62.31 4.89Q61.69 3.92 60.65 3.50L60.65 3.50L58.84 4.87L58.84 4.87Q58.83 4.12 58.27 3.66L58.27 3.66ZM60.10 4.48L60.10 4.48Q60.96 4.75 61.43 5.62L61.43 5.62L61.43 5.62Q61.90 6.49 61.79 7.33L61.79 7.33L61.79 7.33Q61.67 8.18 60.55 8.33L60.55 8.33L60.55 8.33Q59.42 8.47 58.82 7.66L58.82 7.66L58.85 5.44L60.10 4.48ZM64.57 3.53L63.62 4.05L63.62 4.05Q63.92 4.42 63.90 5.35L63.90 5.35L63.90 5.35Q63.72 11.53 63.83 12.01L63.83 12.01L63.83 12.01Q63.94 12.50 64.51 12.80L64.51 12.80L65.83 11.96L65.69 11.72L65.69 11.72Q65.19 12.04 64.94 11.35L64.94 11.35L64.94 11.35Q64.70 10.66 64.91 4.89L64.91 4.89L64.91 4.89Q64.89 3.89 64.57 3.53L64.57 3.53ZM69.21 6.54L69.21 6.54L69.21 6.54Q68.19 6.56 67.34 7.23L67.34 7.23L67.34 7.23Q66.50 7.90 66.92 8.74L66.92 8.74L68.04 8.07L68.04 8.07Q67.82 6.90 69.24 7.03L69.24 7.03L69.24 7.03Q70.67 7.15 70.49 8.89L70.49 8.89L70.49 8.89Q69.38 8.39 68.50 8.61L68.50 8.61L68.50 8.61Q67.62 8.82 66.88 9.71L66.88 9.71L66.88 9.71Q66.29 10.58 66.51 11.18L66.51 11.18L66.51 11.18Q66.73 11.79 67.21 12.23L67.21 12.23L67.21 12.23Q67.69 12.67 68.29 12.71L68.29 12.71L68.29 12.71Q68.89 12.76 69.30 12.48L69.30 12.48L69.30 12.48Q69.71 12.20 70.50 11.49L70.50 11.49L70.50 11.49Q70.57 12.36 71.06 12.76L71.06 12.76L72.17 11.80L72.08 11.64L72.08 11.64Q71.52 12.10 71.46 10.58L71.46 10.58L71.46 8.14L71.46 8.14Q71.43 7.23 70.83 6.88L70.83 6.88L70.83 6.88Q70.23 6.53 69.21 6.54ZM70.18 9.84L70.18 9.84L70.46 9.47L70.46 11.08L70.46 11.08Q69.60 11.95 68.97 11.90L68.97 11.90L68.97 11.90Q68.35 11.85 67.93 11.48L67.93 11.48L67.93 11.48Q67.50 11.12 67.31 10.64L67.31 10.64L67.31 10.64Q67.12 10.17 67.39 9.71L67.39 9.71L67.39 9.71Q67.66 9.26 68.44 9.19L68.44 9.19L68.44 9.19Q69.23 9.11 70.18 9.84ZM74.48 3.96L73.62 4.63L73.62 4.63Q74.09 4.55 73.94 6.59L73.94 6.59L73.36 6.62L72.43 7.56L72.58 7.83L72.58 7.83Q73.02 7.33 73.86 7.41L73.86 7.41L73.86 7.41Q73.72 11.04 73.86 11.58L73.86 11.58L73.86 11.58Q73.99 12.11 74.57 12.68L74.57 12.68L74.57 12.68Q75.02 12.24 76.30 11.30L76.30 11.30L76.21 10.98L76.21 10.98Q74.92 11.88 74.81 10.99L74.81 10.99L74.81 10.99Q74.71 10.09 74.83 7.46L74.83 7.46L75.67 7.46L76.30 6.75L76.24 6.61L74.88 6.64L74.88 4.83L74.88 4.83Q74.81 4.25 74.48 3.96L74.48 3.96ZM80.15 6.60L80.15 6.60L80.15 6.60Q79.08 6.43 78.16 7.26L78.16 7.26L78.16 7.26Q77.23 8.09 76.97 9.20L76.97 9.20L76.97 9.20Q76.71 10.31 77.13 11.26L77.13 11.26L77.13 11.26Q77.55 12.22 78.69 12.62L78.69 12.62L78.69 12.62Q79.62 12.93 80.62 12.18L80.62 12.18L80.62 12.18Q81.63 11.43 81.74 10.84L81.74 10.84L81.53 10.68L81.53 10.68Q80.71 11.85 79.93 11.81L79.93 11.81L79.93 11.81Q79.15 11.76 78.77 11.46L78.77 11.46L78.77 11.46Q78.38 11.15 78.17 10.80L78.17 10.80L80.06 9.54L80.06 9.54Q81.50 8.65 81.36 7.70L81.36 7.70L81.36 7.70Q81.22 6.76 80.15 6.60ZM77.72 8.75L77.72 8.75L77.72 8.75Q77.72 8.12 78.23 7.58L78.23 7.58L78.23 7.58Q78.74 7.04 79.33 7.19L79.33 7.19L79.33 7.19Q79.93 7.34 80.17 8.00L80.17 8.00L80.17 8.00Q80.40 8.67 80.11 9.02L80.11 9.02L80.11 9.02Q79.82 9.37 77.99 10.40L77.99 10.40L77.99 10.40Q77.83 10.04 77.77 9.71L77.77 9.71L77.77 9.71Q77.71 9.37 77.72 8.75Z"></path></g><!----><!----></svg>